# xmcd
#
# Track frame offsets: 
#        150
#        15634
#        35076
#        53899
#        70394
#        86645
#        109902
#        127576
#        142932
#        161335
#        180301
#
# Disc length: 2688 seconds
#
# Revision: 2
# Processed by: cddbd v1.5.2PL0 Copyright (c) Steve Scherf et al.
# Submitted via: ExactAudioCopy v1.3
#
DISCID=880a7e0b
DTITLE=Mark Reeves - It Takes a While to Get Like This
DYEAR=1998
DGENRE=Blues
TTITLE0=Do You Know
TTITLE1=Takes a While to Get Like This
TTITLE2=Broken Me
TTITLE3=Can You Hear Me Now (the stalker song)
TTITLE4=There's a Change
TTITLE5=Pillowcase
TTITLE6=Angelina
TTITLE7=Carry These Blues
TTITLE8=Leon's Lounge
TTITLE9=Need to Know
TTITLE10=Cement
EXTD=
EXTT0=
EXTT1=
EXTT2=
EXTT3=
EXTT4=
EXTT5=
EXTT6=
EXTT7=
EXTT8=
EXTT9=
EXTT10=
PLAYORDER=
